<?xml version="1.0" encoding="UTF-8"?>
<svg width="220px" height="31px" viewBox="0 0 220 31" version="1.1" xmlns="http://www.w3.org/2000/svg" xmlns:xlink="http://www.w3.org/1999/xlink">
    <title>logo</title>
    <desc>Created with Sketch.</desc>
    <defs>
        <path d="M15.0933415,0 C6.75744522,0 -1.9963634e-15,6.75744522 -1.9963634e-15,15.0933415 L-1.9963634e-15,15.0933415 C-1.9963634e-15,23.4289569 6.75744522,30.1866831 15.0933415,30.1866831 L15.0933415,30.1866831 C23.4253044,30.1776922 30.1774113,23.4253044 30.1866831,15.0933415 L30.1866831,15.0933415 C30.1866831,6.75744522 23.4292378,0 15.0933415,0 Z M0.483256654,15.0992418 C0.483256654,7.0299795 7.02436023,0.488875917 15.0933415,0.488875917 L15.0933415,0.488875917 C23.1623228,0.488875917 29.7037074,7.0299795 29.7037074,15.0992418 L29.7037074,15.0992418 C29.7037074,23.1679421 23.1623228,29.7090457 15.0933415,29.7090457 L15.0933415,29.7090457 C7.02436023,29.7090457 0.483256654,23.1679421 0.483256654,15.0992418 L0.483256654,15.0992418 Z" id="path-1"></path>
        <linearGradient x1="-1.02382725e-05%" y1="49.9999989%" x2="99.999992%" y2="49.9999989%" id="linearGradient-3">
            <stop stop-color="#FDA8FF" offset="0%"></stop>
            <stop stop-color="#029CFF" offset="100%"></stop>
        </linearGradient>
        <path d="M-1.9963634e-15,14.1124991 C-1.9963634e-15,21.9095081 7.51857445,28.2536565 16.7903591,28.2536565 L16.7903591,28.2536565 C26.0452859,28.2536565 33.5750989,21.9432236 33.5750989,14.1408764 L33.5750989,14.1408764 C33.5750989,6.33852913 26.0340474,0 16.7847398,0 L16.7847398,0 C7.53543224,0 -1.9963634e-15,6.31605208 -1.9963634e-15,14.1124991 L-1.9963634e-15,14.1124991 Z M16.7903591,27.7760191 C7.79953762,27.7732094 0.494495181,21.6482123 0.494495181,14.1240186 L0.494495181,14.1240186 C0.494495181,6.59982488 7.79953762,0.47763739 16.7903591,0.47763739 L16.7903591,0.47763739 C25.7811806,0.47763739 33.086223,6.60235355 33.086223,14.1268282 L33.086223,14.1268282 C33.086223,21.6510219 25.7811806,27.7760191 16.7903591,27.7760191 Z" id="path-4"></path>
        <linearGradient x1="1.42259414e-06%" y1="49.9999988%" x2="99.9999886%" y2="49.9999988%" id="linearGradient-6">
            <stop stop-color="#FDA8FF" offset="0%"></stop>
            <stop stop-color="#029CFF" offset="100%"></stop>
        </linearGradient>
        <path d="M0,13.182792 C0,20.468167 8.29122317,26.3683936 18.4817574,26.3683936 L18.4817574,26.3683936 C28.6554338,26.3683936 36.9494666,20.4712576 36.9494666,13.1856016 L36.9494666,13.1856016 C36.9494666,5.90022659 28.6554338,0 18.4648996,0 L18.4648996,0 C8.27436538,0 0,5.89741695 0,13.182792 M0.500114444,13.182792 C0.500114444,6.18399939 8.56094781,0.488875917 18.4817574,0.488875917 L18.4817574,0.488875917 C28.3969477,0.488875917 36.4636813,6.18680902 36.4636813,13.1856016 L36.4636813,13.1856016 C36.4636813,20.1843942 28.3994763,25.8797986 18.4817574,25.8797986 L18.4817574,25.8797986 C8.55532855,25.8797986 0.500114444,20.1815846 0.500114444,13.182792" id="path-7"></path>
        <linearGradient x1="-9.12478138e-07%" y1="49.9999975%" x2="100.000007%" y2="49.9999975%" id="linearGradient-9">
            <stop stop-color="#FDA8FF" offset="0%"></stop>
            <stop stop-color="#029CFF" offset="100%"></stop>
        </linearGradient>
        <path d="M0,12.2247076 C0,18.9706333 9.05291433,24.457844 20.1759653,24.457844 L20.1759653,24.457844 C31.2852491,24.457844 40.3519306,18.973162 40.3519306,12.2303268 L40.3519306,12.2303268 C40.3519306,5.48749169 31.293678,0 20.170346,0 L20.170346,0 C9.0470141,0 0,5.47878183 0,12.2247076 M0.480447022,12.2247076 C0.480447022,5.75412574 9.30830985,0.488875917 20.1759653,0.488875917 L20.1759653,0.488875917 C31.0211437,0.488875917 39.8433872,5.75693537 39.8433872,12.2303268 L39.8433872,12.2303268 C39.8433872,18.7037183 31.0267629,23.9689681 20.1759653,23.9689681 L20.1759653,23.9689681 C9.31111948,23.9689681 0.480447022,18.6952894 0.480447022,12.2247076" id="path-10"></path>
        <linearGradient x1="0%" y1="49.999993%" x2="99.9999966%" y2="49.999993%" id="linearGradient-12">
            <stop stop-color="#FDA8FF" offset="0%"></stop>
            <stop stop-color="#029CFF" offset="100%"></stop>
        </linearGradient>
        <path d="M0,11.2722424 C0,17.492767 9.81123392,22.5501041 21.8698922,22.5501041 L21.8698922,22.5501041 C33.9147834,22.5501041 43.7316366,17.4983863 43.7316366,11.2778617 L43.7316366,11.2778617 C43.7316366,5.05733707 33.9116928,0 21.8502248,0 L21.8502248,0 C9.78847591,0 0,5.05171781 0,11.2722424 M6.69788103,18.8189132 C2.69415584,16.767882 0.491404586,14.0846838 0.491404586,11.2722424 L0.491404586,11.2722424 C0.491404586,8.45980107 2.69134621,5.78222205 6.69788103,3.73119091 L6.69788103,3.73119091 C10.7577988,1.64082492 16.1466725,0.491685549 21.8698922,0.491685549 L21.8698922,0.491685549 C27.5762542,0.491685549 32.9679375,1.64644418 37.0419035,3.73119091 L37.0419035,3.73119091 C41.0315805,5.78503169 43.2230932,8.46542034 43.2230932,11.2778617 L43.2230932,11.2778617 C43.2230932,14.090584 41.0315805,16.7706917 37.0419035,18.8217228 L37.0419035,18.8217228 C32.9707471,20.9092792 27.5846831,22.0612282 21.8698922,22.0612282 L21.8698922,22.0612282 C16.1553823,22.0612282 10.7634181,20.9092792 6.69788103,18.8189132" id="path-13"></path>
        <linearGradient x1="-0.000641700236%" y1="49.9999958%" x2="99.9999969%" y2="49.9999958%" id="linearGradient-15">
            <stop stop-color="#FDA8FF" offset="0%"></stop>
            <stop stop-color="#029CFF" offset="100%"></stop>
        </linearGradient>
        <path d="M9.981817e-16,10.3113484 C9.981817e-16,16.0149007 10.5698345,20.6342162 23.5643811,20.6342162 L23.5643811,20.6342162 L23.5812389,20.6342162 C36.564547,20.6342162 47.1259526,16.0123721 47.1259526,10.3197773 L47.1259526,10.3197773 C47.1259526,4.62746342 36.5280218,0 23.5447137,0 L23.5447137,0 C10.5616866,0 9.981817e-16,4.607796 9.981817e-16,10.3113484 L9.981817e-16,10.3113484 Z M23.5643811,20.1537692 C11.0587104,20.1537692 0.491685549,15.6583585 0.491685549,10.3197773 L0.491685549,10.3197773 C0.491685549,4.98175798 11.0500005,0.486628212 23.5629763,0.486066285 L23.5629763,0.486066285 C36.0759521,0.486628212 46.6370767,4.98175798 46.6370767,10.3197773 L46.6370767,10.3197773 C46.6370767,15.6583585 36.0810094,20.1537692 23.5812389,20.1537692 L23.5812389,20.1537692 L23.5812389,20.3976452 L23.5643811,20.1537692 Z" id="path-16"></path>
        <linearGradient x1="-1.60972992e-06%" y1="49.9993175%" x2="100.000005%" y2="49.9993175%" id="linearGradient-18">
            <stop stop-color="#FDA8FF" offset="0%"></stop>
            <stop stop-color="#029CFF" offset="100%"></stop>
        </linearGradient>
        <path d="M0,9.35888322 C0,14.5033189 11.3396736,18.7177664 25.2642083,18.7177664 L25.2642083,18.7177664 L25.2866854,18.7177664 C39.2056008,18.7177664 50.5199877,14.5257959 50.5199877,9.37012175 L50.5199877,9.37012175 C50.5199877,4.21444756 39.1468795,0 25.2333024,0 L25.2333024,0 C11.3200062,0 0,4.21444756 0,9.35888322 M0.494495181,9.34764469 C0.494495181,4.54036484 11.8257399,0.47763739 25.2642083,0.47763739 L25.2642083,0.47763739 L25.2698276,0.488875917 C38.6939669,0.488875917 50.0283022,4.56284189 50.0283022,9.37012175 L50.0283022,9.37012175 C50.0283022,14.1774016 38.6970575,18.240129 25.2866854,18.240129 L25.2866854,18.240129 L25.2698276,18.240129 C11.8425976,18.240129 0.494495181,14.1549245 0.494495181,9.34764469" id="path-19"></path>
        <linearGradient x1="-1.33474223e-06%" y1="49.9999943%" x2="99.9999973%" y2="49.9999943%" id="linearGradient-21">
            <stop stop-color="#FDA8FF" offset="0%"></stop>
            <stop stop-color="#029CFF" offset="100%"></stop>
        </linearGradient>
        <path d="M26.921891,0 C19.8331902,0 13.1378379,0.868176198 7.98778295,2.46404701 L7.98778295,2.46404701 C2.83772802,4.05991782 -9.981817e-16,6.16995123 -9.981817e-16,8.40360844 L-9.981817e-16,8.40360844 C-9.981817e-16,10.6372656 2.86863397,12.7613472 7.99621184,14.3515988 L7.99621184,14.3515988 C13.1237897,15.9415693 19.8584769,16.8181744 26.9556066,16.8181744 L26.9556066,16.8181744 L26.9865126,16.8181744 C34.0752134,16.8181744 40.7733753,15.9530888 45.9206206,14.3544084 L45.9206206,14.3544084 C51.0678659,12.755728 53.9055939,10.6513138 53.9055939,8.41484696 L53.9055939,8.41484696 C53.9055939,6.17838013 51.03696,4.05710819 45.9093821,2.46685664 L45.9093821,2.46685664 C40.7818042,0.876605093 34.0499267,0 26.9556066,0 L26.9556066,0 L26.921891,0 Z M0.491685549,8.40360844 C0.491685549,4.18635124 12.8428265,0.488875917 26.921891,0.488875917 L26.921891,0.488875917 L26.9556066,0.488875917 C41.0515289,0.488875917 53.4139084,4.2003994 53.4139084,8.41484696 L53.4139084,8.41484696 C53.4139084,12.6292945 41.065577,16.3298604 26.9865126,16.3298604 L26.9865126,16.3298604 L26.9556066,16.3298604 C12.8540651,16.3298604 0.491685549,12.6208656 0.491685549,8.40360844 L0.491685549,8.40360844 Z" id="path-22"></path>
        <linearGradient x1="-1.25091212e-06%" y1="50.0008296%" x2="99.9999911%" y2="50.0008296%" id="linearGradient-24">
            <stop stop-color="#FDA8FF" offset="0%"></stop>
            <stop stop-color="#029CFF" offset="100%"></stop>
        </linearGradient>
        <path d="M28.5964315,0 C21.0834763,0 13.9554407,0.786696878 8.48227813,2.19151273 L8.48227813,2.19151273 C3.00911556,3.59632859 -4.9909085e-16,5.462205 -4.9909085e-16,7.43990476 L-4.9909085e-16,7.43990476 C-4.9909085e-16,9.41788548 3.02878298,11.2919098 8.49632628,12.7079642 L8.49632628,12.7079642 C13.9638696,14.1240186 21.1171919,14.9022866 28.6413856,14.9022866 L28.6413856,14.9022866 L28.6835301,14.9022866 C36.1967663,14.9022866 43.3189017,14.1240186 48.7948739,12.7192027 L48.7948739,12.7192027 C54.2708461,11.3143869 57.2827713,9.44036254 57.2827713,7.46238182 L57.2827713,7.46238182 C57.2827713,5.48468206 54.2455594,3.60756711 48.7808257,2.19432236 L48.7808257,2.19432236 C43.316092,0.781077615 36.1627697,0 28.6413856,0 L28.6413856,0 L28.5964315,0 Z M0.483256654,7.43990476 C0.483256654,4.13577787 12.0196044,0.482975691 28.5964315,0.482975691 L28.5964315,0.482975691 L28.6413856,0.482975691 C45.2350705,0.482975691 56.7798472,4.16387419 56.7798472,7.45395292 L56.7798472,7.45395292 C56.7798472,10.7443126 45.2603572,14.4134107 28.6835301,14.4134107 L28.6835301,14.4134107 L28.6413856,14.4134107 C12.0477008,14.4134107 0.483256654,10.7443126 0.483256654,7.43990476 L0.483256654,7.43990476 Z" id="path-25"></path>
        <linearGradient x1="-1.17716304e-06%" y1="49.9999977%" x2="99.9999937%" y2="49.9999977%" id="linearGradient-27">
            <stop stop-color="#FDA8FF" offset="0%"></stop>
            <stop stop-color="#029CFF" offset="100%"></stop>
        </linearGradient>
        <path d="M30.2794009,0 C13.8655325,0 0,2.96697108 0,6.49305888 L0,6.49305888 C0,10.0194276 13.8964384,13.0001659 30.3440224,13.0001659 L30.3440224,13.0001659 L30.4030247,13.0001659 C46.8168931,13.0001659 60.6852353,10.0331948 60.6852353,6.50710704 L60.6852353,6.50710704 C60.6852353,2.98101924 46.7859872,0 30.3412128,0 L30.3412128,0 L30.2794009,0 Z M9.11444526,10.6007404 C3.71714275,9.44879143 0.494495181,7.91192289 0.494495181,6.49305888 L0.494495181,6.49305888 C0.494495181,5.0739139 3.70899482,3.54294558 9.09477784,2.39661585 L9.09477784,2.39661585 C14.8629517,1.16599716 22.3871454,0.488875917 30.2822105,0.488875917 L30.2822105,0.488875917 L30.3384032,0.488875917 C38.2447068,0.488875917 45.7829487,1.16880679 51.5651707,2.40223511 L51.5651707,2.40223511 C56.9678115,3.55137448 60.1907401,5.08824302 60.1907401,6.50710704 L60.1907401,6.50710704 C60.1907401,7.92625201 56.9765214,9.45722033 51.5904574,10.6035501 L51.5904574,10.6035501 C45.8194739,11.8341688 38.2952802,12.511009 30.4030247,12.511009 L30.4030247,12.511009 L30.3440224,12.511009 C22.4349092,12.511009 14.8966673,11.8310782 9.11444526,10.6007404 L9.11444526,10.6007404 Z" id="path-28"></path>
        <linearGradient x1="0%" y1="49.9999905%" x2="99.9999955%" y2="49.9999905%" id="linearGradient-30">
            <stop stop-color="#FDA8FF" offset="0%"></stop>
            <stop stop-color="#029CFF" offset="100%"></stop>
        </linearGradient>
        <path d="M31.9539414,0 C14.6272236,0 0,2.50057222 0,5.52626461 L0,5.52626461 C0,8.55279988 14.6634679,11.0814684 32.0298015,11.0814684 L32.0298015,11.0814684 L32.1112808,11.0814684 C49.4298506,11.0814684 64.0764607,8.55813818 64.0764607,5.54340336 L64.0764607,5.54340336 C64.0764607,2.52866854 49.396416,0 32.0466593,0 L32.0466593,0 L31.9539414,0 Z M9.59208265,8.94839603 C2.87706287,7.79138969 0.486066285,6.40596029 0.486066285,5.52626461 L0.486066285,5.52626461 C0.486066285,4.64713084 2.87144361,3.27041131 9.56679596,2.11846231 L9.56679596,2.11846231 C15.6974124,1.06204079 23.6458605,0.480447022 31.9483221,0.480447022 L31.9483221,0.480447022 L32.0298015,0.480447022 C40.349121,0.480447022 48.3144268,1.06485042 54.461901,2.12408157 L54.461901,2.12408157 C61.1772018,3.2788402 63.570727,4.661179 63.570727,5.54340336 L63.570727,5.54340336 C63.570727,6.42562772 61.1853497,7.80206629 54.4899973,8.95429625 L54.4899973,8.95429625 C48.359381,10.0107178 40.4109329,10.5923115 32.1112808,10.5923115 L32.1112808,10.5923115 L32.0298015,10.5923115 C23.7076723,10.5923115 15.7507954,10.0079081 9.59208265,8.94839603 L9.59208265,8.94839603 Z" id="path-31"></path>
        <linearGradient x1="0%" y1="49.9987292%" x2="99.9999989%" y2="49.9987292%" id="linearGradient-33">
            <stop stop-color="#FDA8FF" offset="0%"></stop>
            <stop stop-color="#029CFF" offset="100%"></stop>
        </linearGradient>
        <path d="M2.00607704,0 C0.898239257,0 0,0.897958294 0,2.00579608 L0,2.00579608 L0,12.0277524 C0,13.1358711 0.898239257,14.0338318 2.00607704,14.0338318 L2.00607704,14.0338318 L62.3597758,14.0338318 C63.4662087,14.0355152 64.364448,13.1398046 64.3658544,12.0333716 L64.3658544,12.0333716 L64.3658544,12.0277524 L64.3658544,2.00579608 C64.3672576,0.89936311 63.471828,0.00140481585 62.365395,0 L62.365395,0 L2.00607704,0 Z M28.4643788,4.80447022 C28.2514087,4.64010677 27.9912369,4.54851277 27.7226361,4.54289351 L27.7226361,4.54289351 L27.7226361,3.2392244 C28.3519936,3.23332417 28.9608408,3.46624264 29.4252729,3.89133992 L29.4252729,3.89133992 C29.8880192,4.33582365 30.2088792,4.90786467 30.347113,5.5346935 L30.347113,5.5346935 L28.9925896,5.5346935 C28.8754279,5.25373033 28.6944877,5.00339215 28.4643788,4.80447022 L28.4643788,4.80447022 Z M25.3260202,9.79943347 C24.8933369,9.18918146 24.6753095,8.26003626 24.671376,7.01227882 L24.671376,7.01227882 C24.671376,5.76705004 24.8877177,4.84071447 25.32012,4.23383402 L25.32012,4.23383402 C25.7528033,3.62414394 26.4442536,3.29541703 27.4051477,3.25327255 L27.4051477,3.25327255 L27.4051477,4.5597513 C27.1342992,4.56480864 26.8701938,4.64713084 26.6434565,4.79576036 L26.6434565,4.79576036 C26.4172812,4.98653435 26.258537,5.24614432 26.1913868,5.5346935 L26.1913868,5.5346935 C26.0714155,6.01795015 26.0185944,6.514974 26.0337664,7.01227882 L26.0337664,7.01227882 C26.0191564,7.50452629 26.0719774,7.99593088 26.1913868,8.47356827 L26.1913868,8.47356827 C26.2602228,8.76380322 26.418405,9.02509897 26.6434565,9.2209303 L26.6434565,9.2209303 C26.8682271,9.3765839 27.1323324,9.4650873 27.4051477,9.47660679 L27.4051477,9.47660679 L27.4051477,10.7828046 C26.4518396,10.7381314 25.7587035,10.4105284 25.3260202,9.79943347 L25.3260202,9.79943347 Z M57.8222205,3.40218303 L59.4346682,3.40218303 L59.4268012,4.70023288 L57.8222205,4.70023288 L57.8222205,3.40218303 Z M54.1387934,3.40218303 L57.4710166,3.40218303 L57.4597781,10.6341751 L56.1055356,10.6341751 L56.1055356,4.70023288 L54.1387934,4.70023288 L54.1387934,3.40218303 Z M46.6317384,3.40218303 L49.9043974,3.40218303 L49.9043974,4.70023288 L46.6289288,4.70023288 L46.6317384,3.40218303 Z M44.9094342,3.40218303 L46.2552478,3.40218303 L46.2631147,10.6341751 L44.9094342,10.6341751 L44.9094342,3.40218303 Z M36.6434977,5.8268952 L38.5931011,3.40218303 L40.2058297,3.40218303 L37.8738354,6.37730205 L40.5148892,10.6341751 L38.9021606,10.6341751 L36.9494666,7.54358017 L36.6434977,7.93411898 L36.6434977,5.8268952 Z M34.9827244,10.6341751 L36.3254474,10.6341751 L36.3254474,3.40218303 L34.9827244,3.40218303 L34.9827244,10.6341751 Z M17.4871477,10.7943241 L17.4871477,9.47660679 C18.2530534,9.47660679 18.6362871,8.88574124 18.6362871,7.70372918 L18.6362871,7.70372918 L18.6362871,3.40218303 L19.98772,3.40218303 L19.98772,7.73463513 C19.98772,8.72362549 19.7685687,9.48025931 19.3302661,10.0048175 L19.3302661,10.0048175 C18.8978638,10.5094274 18.2676634,10.7974147 17.607119,10.7974147 L17.607119,10.7974147 C17.5672223,10.7974147 17.5273255,10.7962908 17.4871477,10.7943241 L17.4871477,10.7943241 Z M15.273158,9.98234049 C14.8255836,9.45019625 14.6024989,8.69468628 14.6044527,7.71496771 L14.6044527,7.71496771 L14.6044527,3.40218303 L15.9589891,3.40218303 L15.9589891,7.70372918 C15.9438171,8.14849388 16.0401874,8.58988702 16.2396713,8.98773087 L16.2396713,8.98773087 C16.4133065,9.31055755 16.7594531,9.50161251 17.1247053,9.47660679 L17.1247053,9.47660679 L17.1019472,10.7774663 C17.0690746,10.7788711 17.0362019,10.779714 17.0033292,10.779714 L17.0033292,10.779714 C16.3394132,10.779714 15.7066841,10.489479 15.273158,9.98234049 L15.273158,9.98234049 Z M6.66163678,3.40218303 L7.29661354,3.40218303 C8.18445716,3.40218303 8.82224356,3.57188479 9.20997274,3.91072637 L9.20997274,3.91072637 C9.61203104,4.29002665 9.82443919,4.82863305 9.78903783,5.38016376 L9.78903783,5.38016376 C9.79915251,5.73080579 9.7008154,6.07639049 9.50807466,6.36915412 L9.50807466,6.36915412 C9.32235801,6.63691202 9.0599384,6.84173417 8.7548124,6.95636715 L8.7548124,6.95636715 C9.10826407,7.05723292 9.41985223,7.2679553 9.64546565,7.55762833 L9.64546565,7.55762833 C9.86798848,7.84112017 9.98767879,8.19176221 9.98546218,8.55223796 L9.98546218,8.55223796 C9.98546218,9.26785115 9.78763302,9.79325228 9.3925988,10.1281604 L9.3925988,10.1281604 L9.38136027,10.1228221 C8.9936311,10.4599779 8.38309813,10.6282748 7.54919944,10.6282748 L7.54919944,10.6282748 L6.65348885,10.6282748 L6.65348885,9.32769631 L7.28818465,9.32769631 C7.63601706,9.35607359 7.98497331,9.29089013 8.29965206,9.13945098 L8.29965206,9.13945098 C8.51936526,8.99840747 8.64242713,8.74750736 8.61995008,8.48761643 L8.61995008,8.48761643 C8.65169892,8.22126334 8.52695127,7.96052952 8.29965206,7.81864312 L8.29965206,7.81864312 C7.98413042,7.67984731 7.64051247,7.61831638 7.29661354,7.63938861 L7.29661354,7.63938861 L6.67006567,7.63938861 L6.67006567,6.32981927 L7.17579938,6.32981927 C7.49750221,6.34836284 7.81892408,6.2876748 8.11140674,6.15281248 L8.11140674,6.15281248 C8.32802934,6.03480795 8.45446277,5.8002037 8.43451439,5.55436092 L8.43451439,5.55436092 C8.45446277,5.30598948 8.33561535,5.06717078 8.1254549,4.93343232 L8.1254549,4.93343232 C7.82763394,4.78620761 7.4960974,4.72018127 7.16456085,4.7420964 L7.16456085,4.7420964 L6.66163678,4.7420964 L6.66163678,3.40218303 Z M4.92809402,3.40218303 L6.27952687,3.40218303 L6.29076539,10.6282748 L4.92809402,10.6282748 L4.92809402,3.40218303 Z M46.6317384,6.31296148 L49.5309974,6.31296148 L49.5309974,7.61915927 L46.6289288,7.61915927 L46.6317384,6.31296148 Z M27.731065,10.7915144 L27.731065,9.48503568 C28.3359787,9.44738662 28.7619188,9.10292577 29.0094474,8.45081025 L29.0094474,8.45081025 L30.3636899,8.45081025 C30.2229273,9.09084435 29.8986958,9.67552871 29.4311731,10.1340606 L29.4311731,10.1340606 L29.439321,10.1340606 C28.9796653,10.5569102 28.3781231,10.7915144 27.7541039,10.7915144 L27.7541039,10.7915144 C27.746237,10.7915144 27.738651,10.7915144 27.731065,10.7915144 L27.731065,10.7915144 Z M46.6289288,9.32769631 L49.9299651,9.32769631 L49.938394,10.6341751 L46.6289288,10.6341751 L46.6289288,9.32769631 Z" id="path-34"></path>
        <linearGradient x1="-1.81151508e-05%" y1="49.9989927%" x2="99.9999911%" y2="49.9989927%" id="linearGradient-36">
            <stop stop-color="#FBE99E" offset="0%"></stop>
            <stop stop-color="#72EBFB" offset="100%"></stop>
        </linearGradient>
    </defs>
    <g id="page-1" stroke="none" stroke-width="1" fill="none" fill-rule="evenodd">
        <g id="bucket-1" transform="translate(-20.000000, -49.000000)">
            <g id="nav1">
                <g id="logo" transform="translate(20.000000, 49.000000)">
                    <g transform="translate(71.876026, 2.031392)" fill="#494B68">
                        <path d="M12.030843,9.23525942 L12.030843,5.21467645 L1.35424248,5.21467645 C0.609690081,5.21467645 0.00449541073,4.61341526 0,3.86886286 L0,0.0899082146 L1.10418526,0.0899082146 L1.10418526,4.11049119 L12.0420815,4.11049119 L12.0420815,0.0899082146 L13.1237897,0.0899082146 L13.1237897,9.23525942 L12.030843,9.23525942 Z" id="Fill-1"></path>
                        <path d="M21.9487867,5.2371535 L21.9487867,4.13296824 L29.8607096,4.16668382 L29.8607096,5.27367872 L21.9487867,5.2371535 Z M21.2941425,9.20716311 C18.7719361,9.14450832 16.7779405,7.04908499 16.8403143,4.52687861 C16.9007214,2.0926137 18.8598776,0.133457506 21.2941425,0.0730504244 L29.8494711,0.112385268 L29.8494711,1.21657053 L21.282904,1.18285495 C19.3712306,1.18285495 17.8214377,2.7326478 17.8214377,4.64432121 C17.8214377,6.55599463 19.3712306,8.10578748 21.282904,8.10578748 L29.8494711,8.14231269 L29.8494711,9.24930758 L21.2941425,9.20716311 Z" id="Fill-3"></path>
                        <path d="M40.4587528,9.23525942 C40.0901291,9.23441653 39.7375203,9.0843822 39.4810009,8.81943393 L39.4416661,8.78009909 L34.2185608,0.595641922 L35.1513585,0 L40.4587528,8.31931949 L45.7633374,0.00280963171 L46.7070927,0.595641922 L41.4727489,8.76886056 L41.4362237,8.8081954 C41.1813901,9.07679619 40.8287813,9.23076401 40.4587528,9.23525942" id="Fill-5"></path>
                        <path d="M55.0940963,5.23428768 L55.0940963,4.11886389 L63.0029285,4.14976984 L63.0029285,5.27362252 L55.0940963,5.23428768 Z M54.4422617,9.20710691 C51.9197743,9.14445213 49.9257787,7.0490288 49.9884335,4.52682241 C50.0488406,2.0925575 52.0079968,0.133401313 54.4422617,0.0729942318 L63.0029285,0.0982809171 L63.0029285,1.20246618 L54.4366424,1.16594097 C52.5241261,1.22044782 51.0178826,2.81491382 51.0723894,4.72743012 C51.1246486,6.56324348 52.6008291,8.03942398 54.4366424,8.09168313 L63.0029285,8.12820834 L63.0029285,9.2323936 L54.4422617,9.20710691 Z" id="Fill-7"></path>
                        <path d="M72.7047554,9.25776457 C71.9565505,9.25607879 71.3507939,8.64891738 71.3507939,7.90071246 L71.3507939,5.47600029 C71.3507939,4.72807633 71.9568315,4.12175781 72.7047554,4.12175781 L77.101829,4.12175781 C77.9174651,4.11557662 78.5754809,3.45362739 78.5768857,2.63827227 L78.5768857,2.5876989 C78.5768857,1.81195958 77.9480901,1.18288305 77.1720698,1.18288305 L67.619322,1.18288305 L67.619322,9.2690031 L66.5154177,9.2690031 L66.5154177,1.42170174 C66.5154177,0.67377778 67.1214553,0.0674592573 67.8693792,0.0674592573 L67.8721889,0.0674592573 L77.1439735,0.0674592573 C78.5406414,0.0674592573 79.672642,1.19945987 79.672642,2.59612779 L79.672642,2.6495108 C79.6712372,4.074556 78.5184453,5.23100041 77.0934001,5.2371816 L72.4546982,5.2371816 L72.4546982,8.15076968 L79.298961,8.15076968 L79.298961,9.25776457 L72.7047554,9.25776457 Z" id="Fill-9"></path>
                        <path d="M84.9744171,9.23236902 C84.2264931,9.23405128 83.6190507,8.62885661 83.617365,7.88093265 L83.617365,7.87812302 L83.617365,0.0898239257 L84.7218312,0.0898239257 L84.7218312,8.12818024 L96.7186776,8.12818024 L96.7186776,9.23236902 L84.9744171,9.23236902 Z" id="Fill-11"></path>
                        <path d="M112.700031,9.2323655 L112.700031,5.65008508 L104.670104,5.65008508 L104.670104,4.55432871 L112.700031,4.55432871 L112.700031,1.18277066 L101.759325,1.18277066 L101.759325,9.22112698 L100.65205,9.22112698 L100.65205,1.44687604 C100.65205,0.697547264 101.259773,0.0898239257 102.009102,0.0898239257 L112.452503,0.0898239257 C113.200427,0.0929145206 113.805621,0.699233043 113.806745,1.44687604 L113.806745,9.2323655 L112.700031,9.2323655 Z" id="Fill-13"></path>
                        <path d="M129.535345,9.28012924 C129.316755,9.27900539 129.101818,9.22506046 128.908797,9.12278987 L128.858223,9.09750318 L118.847506,0.901807489 L118.847506,9.24360403 L117.740499,9.24360403 L117.740499,1.40192193 C117.73742,0.655683752 118.339805,0.0479604133 119.086324,0.0448698184 L119.091943,0.0448698184 C119.311657,0.0454317447 119.52856,0.0982528208 119.724111,0.199399562 L119.771874,0.224686248 L129.785402,8.42881083 L129.785402,0.087014294 L130.889321,0.087014294 L130.889321,7.92588676 C130.891554,8.40043355 130.643744,8.84126477 130.237752,9.08626465 C130.025063,9.21297904 129.782592,9.27984828 129.535345,9.28012924" id="Fill-15"></path>
                        <path d="M134.825881,9.23525942 L134.825881,4.51788779 L135.932595,4.51788779 L135.932595,8.13107416 L143.428692,8.13107416 C145.340647,8.13135513 146.89044,6.58184324 146.890721,4.66988886 C146.890721,2.75821545 145.34149,1.2084226 143.429535,1.20814163 L143.428692,1.20814163 L134.825881,1.20814163 L134.825881,0.101146741 L143.428692,0.101146741 C145.95118,0.031186912 148.052222,2.01900135 148.122182,4.54092677 C148.192142,7.06313315 146.204328,9.1644567 143.682121,9.2346975 C143.672568,9.23497846 143.663297,9.23497846 143.653744,9.23525942 L134.825881,9.23525942 Z" id="Fill-17"></path>
                    </g>
                    <g transform="translate(16.933650, 0.000000)">
                        <mask id="mask-2" fill="white">
                            <use xlink:href="#path-1"></use>
                        </mask>
                        <g id="Clip-20"></g>
                        <path d="M15.0933415,0 C6.75744522,0 -1.9963634e-15,6.75744522 -1.9963634e-15,15.0933415 L-1.9963634e-15,15.0933415 C-1.9963634e-15,23.4289569 6.75744522,30.1866831 15.0933415,30.1866831 L15.0933415,30.1866831 C23.4253044,30.1776922 30.1774113,23.4253044 30.1866831,15.0933415 L30.1866831,15.0933415 C30.1866831,6.75744522 23.4292378,0 15.0933415,0 Z M0.483256654,15.0992418 C0.483256654,7.0299795 7.02436023,0.488875917 15.0933415,0.488875917 L15.0933415,0.488875917 C23.1623228,0.488875917 29.7037074,7.0299795 29.7037074,15.0992418 L29.7037074,15.0992418 C29.7037074,23.1679421 23.1623228,29.7090457 15.0933415,29.7090457 L15.0933415,29.7090457 C7.02436023,29.7090457 0.483256654,23.1679421 0.483256654,15.0992418 L0.483256654,15.0992418 Z" id="Fill-19" fill="url(#linearGradient-3)" mask="url(#mask-2)"></path>
                    </g>
                    <g transform="translate(15.239442, 0.966513)">
                        <mask id="mask-5" fill="white">
                            <use xlink:href="#path-4"></use>
                        </mask>
                        <g id="Clip-22"></g>
                        <path d="M-1.9963634e-15,14.1124991 C-1.9963634e-15,21.9095081 7.51857445,28.2536565 16.7903591,28.2536565 L16.7903591,28.2536565 C26.0452859,28.2536565 33.5750989,21.9432236 33.5750989,14.1408764 L33.5750989,14.1408764 C33.5750989,6.33852913 26.0340474,0 16.7847398,0 L16.7847398,0 C7.53543224,0 -1.9963634e-15,6.31605208 -1.9963634e-15,14.1124991 L-1.9963634e-15,14.1124991 Z M16.7903591,27.7760191 C7.79953762,27.7732094 0.494495181,21.6482123 0.494495181,14.1240186 L0.494495181,14.1240186 C0.494495181,6.59982488 7.79953762,0.47763739 16.7903591,0.47763739 L16.7903591,0.47763739 C25.7811806,0.47763739 33.086223,6.60235355 33.086223,14.1268282 L33.086223,14.1268282 C33.086223,21.6510219 25.7811806,27.7760191 16.7903591,27.7760191 Z" id="Fill-21" fill="url(#linearGradient-6)" mask="url(#mask-5)"></path>
                    </g>
                    <g transform="translate(13.564902, 1.907740)">
                        <mask id="mask-8" fill="white">
                            <use xlink:href="#path-7"></use>
                        </mask>
                        <g id="Clip-24"></g>
                        <path d="M0,13.182792 C0,20.468167 8.29122317,26.3683936 18.4817574,26.3683936 L18.4817574,26.3683936 C28.6554338,26.3683936 36.9494666,20.4712576 36.9494666,13.1856016 L36.9494666,13.1856016 C36.9494666,5.90022659 28.6554338,0 18.4648996,0 L18.4648996,0 C8.27436538,0 0,5.89741695 0,13.182792 M0.500114444,13.182792 C0.500114444,6.18399939 8.56094781,0.488875917 18.4817574,0.488875917 L18.4817574,0.488875917 C28.3969477,0.488875917 36.4636813,6.18680902 36.4636813,13.1856016 L36.4636813,13.1856016 C36.4636813,20.1843942 28.3994763,25.8797986 18.4817574,25.8797986 L18.4817574,25.8797986 C8.55532855,25.8797986 0.500114444,20.1815846 0.500114444,13.182792" id="Fill-23" fill="url(#linearGradient-9)" mask="url(#mask-8)"></path>
                    </g>
                    <g transform="translate(11.870694, 2.863015)">
                        <mask id="mask-11" fill="white">
                            <use xlink:href="#path-10"></use>
                        </mask>
                        <g id="Clip-26"></g>
                        <path d="M0,12.2247076 C0,18.9706333 9.05291433,24.457844 20.1759653,24.457844 L20.1759653,24.457844 C31.2852491,24.457844 40.3519306,18.973162 40.3519306,12.2303268 L40.3519306,12.2303268 C40.3519306,5.48749169 31.293678,0 20.170346,0 L20.170346,0 C9.0470141,0 0,5.47878183 0,12.2247076 M0.480447022,12.2247076 C0.480447022,5.75412574 9.30830985,0.488875917 20.1759653,0.488875917 L20.1759653,0.488875917 C31.0211437,0.488875917 39.8433872,5.75693537 39.8433872,12.2303268 L39.8433872,12.2303268 C39.8433872,18.7037183 31.0267629,23.9689681 20.1759653,23.9689681 L20.1759653,23.9689681 C9.31111948,23.9689681 0.480447022,18.6952894 0.480447022,12.2247076" id="Fill-25" fill="url(#linearGradient-12)" mask="url(#mask-11)"></path>
                    </g>
                    <g transform="translate(10.176767, 3.815480)">
                        <mask id="mask-14" fill="white">
                            <use xlink:href="#path-13"></use>
                        </mask>
                        <g id="Clip-28"></g>
                        <path d="M0,11.2722424 C0,17.492767 9.81123392,22.5501041 21.8698922,22.5501041 L21.8698922,22.5501041 C33.9147834,22.5501041 43.7316366,17.4983863 43.7316366,11.2778617 L43.7316366,11.2778617 C43.7316366,5.05733707 33.9116928,0 21.8502248,0 L21.8502248,0 C9.78847591,0 0,5.05171781 0,11.2722424 M6.69788103,18.8189132 C2.69415584,16.767882 0.491404586,14.0846838 0.491404586,11.2722424 L0.491404586,11.2722424 C0.491404586,8.45980107 2.69134621,5.78222205 6.69788103,3.73119091 L6.69788103,3.73119091 C10.7577988,1.64082492 16.1466725,0.491685549 21.8698922,0.491685549 L21.8698922,0.491685549 C27.5762542,0.491685549 32.9679375,1.64644418 37.0419035,3.73119091 L37.0419035,3.73119091 C41.0315805,5.78503169 43.2230932,8.46542034 43.2230932,11.2778617 L43.2230932,11.2778617 C43.2230932,14.090584 41.0315805,16.7706917 37.0419035,18.8217228 L37.0419035,18.8217228 C32.9707471,20.9092792 27.5846831,22.0612282 21.8698922,22.0612282 L21.8698922,22.0612282 C16.1553823,22.0612282 10.7634181,20.9092792 6.69788103,18.8189132" id="Fill-27" fill="url(#linearGradient-15)" mask="url(#mask-14)"></path>
                    </g>
                    <g transform="translate(8.465420, 4.776374)">
                        <mask id="mask-17" fill="white">
                            <use xlink:href="#path-16"></use>
                        </mask>
                        <g id="Clip-30"></g>
                        <path d="M9.981817e-16,10.3113484 C9.981817e-16,16.0149007 10.5698345,20.6342162 23.5643811,20.6342162 L23.5643811,20.6342162 L23.5812389,20.6342162 C36.564547,20.6342162 47.1259526,16.0123721 47.1259526,10.3197773 L47.1259526,10.3197773 C47.1259526,4.62746342 36.5280218,0 23.5447137,0 L23.5447137,0 C10.5616866,0 9.981817e-16,4.607796 9.981817e-16,10.3113484 L9.981817e-16,10.3113484 Z M23.5643811,20.1537692 C11.0587104,20.1537692 0.491685549,15.6583585 0.491685549,10.3197773 L0.491685549,10.3197773 C0.491685549,4.98175798 11.0500005,0.486628212 23.5629763,0.486066285 L23.5629763,0.486066285 C36.0759521,0.486628212 46.6370767,4.98175798 46.6370767,10.3197773 L46.6370767,10.3197773 C46.6370767,15.6583585 36.0810094,20.1537692 23.5812389,20.1537692 L23.5812389,20.1537692 L23.5812389,20.3976452 L23.5643811,20.1537692 Z" id="Fill-29" fill="url(#linearGradient-18)" mask="url(#mask-17)"></path>
                    </g>
                    <g transform="translate(6.759974, 5.726029)">
                        <mask id="mask-20" fill="white">
                            <use xlink:href="#path-19"></use>
                        </mask>
                        <g id="Clip-32"></g>
                        <path d="M0,9.35888322 C0,14.5033189 11.3396736,18.7177664 25.2642083,18.7177664 L25.2642083,18.7177664 L25.2866854,18.7177664 C39.2056008,18.7177664 50.5199877,14.5257959 50.5199877,9.37012175 L50.5199877,9.37012175 C50.5199877,4.21444756 39.1468795,0 25.2333024,0 L25.2333024,0 C11.3200062,0 0,4.21444756 0,9.35888322 M0.494495181,9.34764469 C0.494495181,4.54036484 11.8257399,0.47763739 25.2642083,0.47763739 L25.2642083,0.47763739 L25.2698276,0.488875917 C38.6939669,0.488875917 50.0283022,4.56284189 50.0283022,9.37012175 L50.0283022,9.37012175 C50.0283022,14.1774016 38.6970575,18.240129 25.2866854,18.240129 L25.2866854,18.240129 L25.2698276,18.240129 C11.8425976,18.240129 0.494495181,14.1549245 0.494495181,9.34764469" id="Fill-31" fill="url(#linearGradient-21)" mask="url(#mask-20)"></path>
                    </g>
                    <g transform="translate(5.074195, 6.681304)">
                        <mask id="mask-23" fill="white">
                            <use xlink:href="#path-22"></use>
                        </mask>
                        <g id="Clip-34"></g>
                        <path d="M26.921891,0 C19.8331902,0 13.1378379,0.868176198 7.98778295,2.46404701 L7.98778295,2.46404701 C2.83772802,4.05991782 -9.981817e-16,6.16995123 -9.981817e-16,8.40360844 L-9.981817e-16,8.40360844 C-9.981817e-16,10.6372656 2.86863397,12.7613472 7.99621184,14.3515988 L7.99621184,14.3515988 C13.1237897,15.9415693 19.8584769,16.8181744 26.9556066,16.8181744 L26.9556066,16.8181744 L26.9865126,16.8181744 C34.0752134,16.8181744 40.7733753,15.9530888 45.9206206,14.3544084 L45.9206206,14.3544084 C51.0678659,12.755728 53.9055939,10.6513138 53.9055939,8.41484696 L53.9055939,8.41484696 C53.9055939,6.17838013 51.03696,4.05710819 45.9093821,2.46685664 L45.9093821,2.46685664 C40.7818042,0.876605093 34.0499267,0 26.9556066,0 L26.9556066,0 L26.921891,0 Z M0.491685549,8.40360844 C0.491685549,4.18635124 12.8428265,0.488875917 26.921891,0.488875917 L26.921891,0.488875917 L26.9556066,0.488875917 C41.0515289,0.488875917 53.4139084,4.2003994 53.4139084,8.41484696 L53.4139084,8.41484696 C53.4139084,12.6292945 41.065577,16.3298604 26.9865126,16.3298604 L26.9865126,16.3298604 L26.9556066,16.3298604 C12.8540651,16.3298604 0.491685549,12.6208656 0.491685549,8.40360844 L0.491685549,8.40360844 Z" id="Fill-33" fill="url(#linearGradient-24)" mask="url(#mask-23)"></path>
                    </g>
                    <g transform="translate(3.388416, 7.642198)">
                        <mask id="mask-26" fill="white">
                            <use xlink:href="#path-25"></use>
                        </mask>
                        <g id="Clip-36"></g>
                        <path d="M28.5964315,0 C21.0834763,0 13.9554407,0.786696878 8.48227813,2.19151273 L8.48227813,2.19151273 C3.00911556,3.59632859 -4.9909085e-16,5.462205 -4.9909085e-16,7.43990476 L-4.9909085e-16,7.43990476 C-4.9909085e-16,9.41788548 3.02878298,11.2919098 8.49632628,12.7079642 L8.49632628,12.7079642 C13.9638696,14.1240186 21.1171919,14.9022866 28.6413856,14.9022866 L28.6413856,14.9022866 L28.6835301,14.9022866 C36.1967663,14.9022866 43.3189017,14.1240186 48.7948739,12.7192027 L48.7948739,12.7192027 C54.2708461,11.3143869 57.2827713,9.44036254 57.2827713,7.46238182 L57.2827713,7.46238182 C57.2827713,5.48468206 54.2455594,3.60756711 48.7808257,2.19432236 L48.7808257,2.19432236 C43.316092,0.781077615 36.1627697,0 28.6413856,0 L28.6413856,0 L28.5964315,0 Z M0.483256654,7.43990476 C0.483256654,4.13577787 12.0196044,0.482975691 28.5964315,0.482975691 L28.5964315,0.482975691 L28.6413856,0.482975691 C45.2350705,0.482975691 56.7798472,4.16387419 56.7798472,7.45395292 L56.7798472,7.45395292 C56.7798472,10.7443126 45.2603572,14.4134107 28.6835301,14.4134107 L28.6835301,14.4134107 L28.6413856,14.4134107 C12.0477008,14.4134107 0.483256654,10.7443126 0.483256654,7.43990476 L0.483256654,7.43990476 Z" id="Fill-35" fill="url(#linearGradient-27)" mask="url(#mask-26)"></path>
                    </g>
                    <g transform="translate(1.685779, 8.589044)">
                        <mask id="mask-29" fill="white">
                            <use xlink:href="#path-28"></use>
                        </mask>
                        <g id="Clip-38"></g>
                        <path d="M30.2794009,0 C13.8655325,0 0,2.96697108 0,6.49305888 L0,6.49305888 C0,10.0194276 13.8964384,13.0001659 30.3440224,13.0001659 L30.3440224,13.0001659 L30.4030247,13.0001659 C46.8168931,13.0001659 60.6852353,10.0331948 60.6852353,6.50710704 L60.6852353,6.50710704 C60.6852353,2.98101924 46.7859872,0 30.3412128,0 L30.3412128,0 L30.2794009,0 Z M9.11444526,10.6007404 C3.71714275,9.44879143 0.494495181,7.91192289 0.494495181,6.49305888 L0.494495181,6.49305888 C0.494495181,5.0739139 3.70899482,3.54294558 9.09477784,2.39661585 L9.09477784,2.39661585 C14.8629517,1.16599716 22.3871454,0.488875917 30.2822105,0.488875917 L30.2822105,0.488875917 L30.3384032,0.488875917 C38.2447068,0.488875917 45.7829487,1.16880679 51.5651707,2.40223511 L51.5651707,2.40223511 C56.9678115,3.55137448 60.1907401,5.08824302 60.1907401,6.50710704 L60.1907401,6.50710704 C60.1907401,7.92625201 56.9765214,9.45722033 51.5904574,10.6035501 L51.5904574,10.6035501 C45.8194739,11.8341688 38.2952802,12.511009 30.4030247,12.511009 L30.4030247,12.511009 L30.3440224,12.511009 C22.4349092,12.511009 14.8966673,11.8310782 9.11444526,10.6007404 L9.11444526,10.6007404 Z" id="Fill-37" fill="url(#linearGradient-30)" mask="url(#mask-29)"></path>
                    </g>
                    <g transform="translate(0.000000, 9.552748)">
                        <mask id="mask-32" fill="white">
                            <use xlink:href="#path-31"></use>
                        </mask>
                        <g id="Clip-40"></g>
                        <path d="M31.9539414,0 C14.6272236,0 0,2.50057222 0,5.52626461 L0,5.52626461 C0,8.55279988 14.6634679,11.0814684 32.0298015,11.0814684 L32.0298015,11.0814684 L32.1112808,11.0814684 C49.4298506,11.0814684 64.0764607,8.55813818 64.0764607,5.54340336 L64.0764607,5.54340336 C64.0764607,2.52866854 49.396416,0 32.0466593,0 L32.0466593,0 L31.9539414,0 Z M9.59208265,8.94839603 C2.87706287,7.79138969 0.486066285,6.40596029 0.486066285,5.52626461 L0.486066285,5.52626461 C0.486066285,4.64713084 2.87144361,3.27041131 9.56679596,2.11846231 L9.56679596,2.11846231 C15.6974124,1.06204079 23.6458605,0.480447022 31.9483221,0.480447022 L31.9483221,0.480447022 L32.0298015,0.480447022 C40.349121,0.480447022 48.3144268,1.06485042 54.461901,2.12408157 L54.461901,2.12408157 C61.1772018,3.2788402 63.570727,4.661179 63.570727,5.54340336 L63.570727,5.54340336 C63.570727,6.42562772 61.1853497,7.80206629 54.4899973,8.95429625 L54.4899973,8.95429625 C48.359381,10.0107178 40.4109329,10.5923115 32.1112808,10.5923115 L32.1112808,10.5923115 L32.0298015,10.5923115 C23.7076723,10.5923115 15.7507954,10.0079081 9.59208265,8.94839603 L9.59208265,8.94839603 Z" id="Fill-39" fill="url(#linearGradient-33)" mask="url(#mask-32)"></path>
                    </g>
                    <g transform="translate(155.518734, 15.023382)">
                        <mask id="mask-35" fill="white">
                            <use xlink:href="#path-34"></use>
                        </mask>
                        <g id="Clip-42"></g>
                        <path d="M2.00607704,0 C0.898239257,0 0,0.897958294 0,2.00579608 L0,2.00579608 L0,12.0277524 C0,13.1358711 0.898239257,14.0338318 2.00607704,14.0338318 L2.00607704,14.0338318 L62.3597758,14.0338318 C63.4662087,14.0355152 64.364448,13.1398046 64.3658544,12.0333716 L64.3658544,12.0333716 L64.3658544,12.0277524 L64.3658544,2.00579608 C64.3672576,0.89936311 63.471828,0.00140481585 62.365395,0 L62.365395,0 L2.00607704,0 Z M28.4643788,4.80447022 C28.2514087,4.64010677 27.9912369,4.54851277 27.7226361,4.54289351 L27.7226361,4.54289351 L27.7226361,3.2392244 C28.3519936,3.23332417 28.9608408,3.46624264 29.4252729,3.89133992 L29.4252729,3.89133992 C29.8880192,4.33582365 30.2088792,4.90786467 30.347113,5.5346935 L30.347113,5.5346935 L28.9925896,5.5346935 C28.8754279,5.25373033 28.6944877,5.00339215 28.4643788,4.80447022 L28.4643788,4.80447022 Z M25.3260202,9.79943347 C24.8933369,9.18918146 24.6753095,8.26003626 24.671376,7.01227882 L24.671376,7.01227882 C24.671376,5.76705004 24.8877177,4.84071447 25.32012,4.23383402 L25.32012,4.23383402 C25.7528033,3.62414394 26.4442536,3.29541703 27.4051477,3.25327255 L27.4051477,3.25327255 L27.4051477,4.5597513 C27.1342992,4.56480864 26.8701938,4.64713084 26.6434565,4.79576036 L26.6434565,4.79576036 C26.4172812,4.98653435 26.258537,5.24614432 26.1913868,5.5346935 L26.1913868,5.5346935 C26.0714155,6.01795015 26.0185944,6.514974 26.0337664,7.01227882 L26.0337664,7.01227882 C26.0191564,7.50452629 26.0719774,7.99593088 26.1913868,8.47356827 L26.1913868,8.47356827 C26.2602228,8.76380322 26.418405,9.02509897 26.6434565,9.2209303 L26.6434565,9.2209303 C26.8682271,9.3765839 27.1323324,9.4650873 27.4051477,9.47660679 L27.4051477,9.47660679 L27.4051477,10.7828046 C26.4518396,10.7381314 25.7587035,10.4105284 25.3260202,9.79943347 L25.3260202,9.79943347 Z M57.8222205,3.40218303 L59.4346682,3.40218303 L59.4268012,4.70023288 L57.8222205,4.70023288 L57.8222205,3.40218303 Z M54.1387934,3.40218303 L57.4710166,3.40218303 L57.4597781,10.6341751 L56.1055356,10.6341751 L56.1055356,4.70023288 L54.1387934,4.70023288 L54.1387934,3.40218303 Z M46.6317384,3.40218303 L49.9043974,3.40218303 L49.9043974,4.70023288 L46.6289288,4.70023288 L46.6317384,3.40218303 Z M44.9094342,3.40218303 L46.2552478,3.40218303 L46.2631147,10.6341751 L44.9094342,10.6341751 L44.9094342,3.40218303 Z M36.6434977,5.8268952 L38.5931011,3.40218303 L40.2058297,3.40218303 L37.8738354,6.37730205 L40.5148892,10.6341751 L38.9021606,10.6341751 L36.9494666,7.54358017 L36.6434977,7.93411898 L36.6434977,5.8268952 Z M34.9827244,10.6341751 L36.3254474,10.6341751 L36.3254474,3.40218303 L34.9827244,3.40218303 L34.9827244,10.6341751 Z M17.4871477,10.7943241 L17.4871477,9.47660679 C18.2530534,9.47660679 18.6362871,8.88574124 18.6362871,7.70372918 L18.6362871,7.70372918 L18.6362871,3.40218303 L19.98772,3.40218303 L19.98772,7.73463513 C19.98772,8.72362549 19.7685687,9.48025931 19.3302661,10.0048175 L19.3302661,10.0048175 C18.8978638,10.5094274 18.2676634,10.7974147 17.607119,10.7974147 L17.607119,10.7974147 C17.5672223,10.7974147 17.5273255,10.7962908 17.4871477,10.7943241 L17.4871477,10.7943241 Z M15.273158,9.98234049 C14.8255836,9.45019625 14.6024989,8.69468628 14.6044527,7.71496771 L14.6044527,7.71496771 L14.6044527,3.40218303 L15.9589891,3.40218303 L15.9589891,7.70372918 C15.9438171,8.14849388 16.0401874,8.58988702 16.2396713,8.98773087 L16.2396713,8.98773087 C16.4133065,9.31055755 16.7594531,9.50161251 17.1247053,9.47660679 L17.1247053,9.47660679 L17.1019472,10.7774663 C17.0690746,10.7788711 17.0362019,10.779714 17.0033292,10.779714 L17.0033292,10.779714 C16.3394132,10.779714 15.7066841,10.489479 15.273158,9.98234049 L15.273158,9.98234049 Z M6.66163678,3.40218303 L7.29661354,3.40218303 C8.18445716,3.40218303 8.82224356,3.57188479 9.20997274,3.91072637 L9.20997274,3.91072637 C9.61203104,4.29002665 9.82443919,4.82863305 9.78903783,5.38016376 L9.78903783,5.38016376 C9.79915251,5.73080579 9.7008154,6.07639049 9.50807466,6.36915412 L9.50807466,6.36915412 C9.32235801,6.63691202 9.0599384,6.84173417 8.7548124,6.95636715 L8.7548124,6.95636715 C9.10826407,7.05723292 9.41985223,7.2679553 9.64546565,7.55762833 L9.64546565,7.55762833 C9.86798848,7.84112017 9.98767879,8.19176221 9.98546218,8.55223796 L9.98546218,8.55223796 C9.98546218,9.26785115 9.78763302,9.79325228 9.3925988,10.1281604 L9.3925988,10.1281604 L9.38136027,10.1228221 C8.9936311,10.4599779 8.38309813,10.6282748 7.54919944,10.6282748 L7.54919944,10.6282748 L6.65348885,10.6282748 L6.65348885,9.32769631 L7.28818465,9.32769631 C7.63601706,9.35607359 7.98497331,9.29089013 8.29965206,9.13945098 L8.29965206,9.13945098 C8.51936526,8.99840747 8.64242713,8.74750736 8.61995008,8.48761643 L8.61995008,8.48761643 C8.65169892,8.22126334 8.52695127,7.96052952 8.29965206,7.81864312 L8.29965206,7.81864312 C7.98413042,7.67984731 7.64051247,7.61831638 7.29661354,7.63938861 L7.29661354,7.63938861 L6.67006567,7.63938861 L6.67006567,6.32981927 L7.17579938,6.32981927 C7.49750221,6.34836284 7.81892408,6.2876748 8.11140674,6.15281248 L8.11140674,6.15281248 C8.32802934,6.03480795 8.45446277,5.8002037 8.43451439,5.55436092 L8.43451439,5.55436092 C8.45446277,5.30598948 8.33561535,5.06717078 8.1254549,4.93343232 L8.1254549,4.93343232 C7.82763394,4.78620761 7.4960974,4.72018127 7.16456085,4.7420964 L7.16456085,4.7420964 L6.66163678,4.7420964 L6.66163678,3.40218303 Z M4.92809402,3.40218303 L6.27952687,3.40218303 L6.29076539,10.6282748 L4.92809402,10.6282748 L4.92809402,3.40218303 Z M46.6317384,6.31296148 L49.5309974,6.31296148 L49.5309974,7.61915927 L46.6289288,7.61915927 L46.6317384,6.31296148 Z M27.731065,10.7915144 L27.731065,9.48503568 C28.3359787,9.44738662 28.7619188,9.10292577 29.0094474,8.45081025 L29.0094474,8.45081025 L30.3636899,8.45081025 C30.2229273,9.09084435 29.8986958,9.67552871 29.4311731,10.1340606 L29.4311731,10.1340606 L29.439321,10.1340606 C28.9796653,10.5569102 28.3781231,10.7915144 27.7541039,10.7915144 L27.7541039,10.7915144 C27.746237,10.7915144 27.738651,10.7915144 27.731065,10.7915144 L27.731065,10.7915144 Z M46.6289288,9.32769631 L49.9299651,9.32769631 L49.938394,10.6341751 L46.6289288,10.6341751 L46.6289288,9.32769631 Z" id="Fill-41" fill="url(#linearGradient-36)" mask="url(#mask-35)"></path>
                    </g>
                </g>
            </g>
        </g>
    </g>
</svg>